<svg fill="#000000" xmlns="http://www.w3.org/2000/svg"  viewBox="0 0 24 24" width="24px" height="24px"><path d="M 12 2 C 10.019531 2 8.351563 3.523438 8.0625 5.5 C 8.019531 5.59375 8 5.710938 8 5.8125 L 8 7.1875 C 8 7.585938 8.414063 8 8.8125 8 L 9.5 8 C 9.667969 8 9.820313 7.953125 9.90625 7.84375 C 10.351563 8.539063 11.113281 9 12 9 C 12.886719 9 13.648438 8.539063 14.09375 7.84375 C 14.179688 7.953125 14.332031 8 14.5 8 L 15.1875 8 C 15.585938 8 16 7.585938 16 7.1875 L 16 5.8125 C 16 5.710938 15.980469 5.59375 15.9375 5.5 C 15.648438 3.523438 13.980469 2 12 2 Z M 12 3 C 13.257813 3 14.34375 3.824219 14.78125 5 L 14 5 C 13.542969 4.386719 12.820313 4 12 4 C 11.179688 4 10.457031 4.386719 10 5 L 9.21875 5 C 9.65625 3.824219 10.742188 3 12 3 Z M 12 10 C 9.101563 10 8.09375 10.40625 7.59375 11.40625 L 4.5 17 L 6.3125 17 L 6.90625 17.40625 C 7.304688 16.707031 7.898438 15.5 8.5 14.5 L 8.5 18.5 L 9.3125 19 L 14.6875 19 L 15.5 18.5 L 15.5 14.5 C 16.101563 15.601563 16.695313 16.707031 17.09375 17.40625 L 17.6875 17 L 19.5 17 L 16.40625 11.40625 C 15.804688 10.40625 14.898438 10 12 10 Z M 3 18 C 2.398438 18 2 18.398438 2 19 L 2 20 C 2 21.101563 2.898438 22 4 22 L 20 22 C 21.101563 22 22 21.101563 22 20 L 22 19 C 22 18.398438 21.601563 18 21 18 L 18 18 L 15 20 L 9 20 L 6 18 Z"/></svg>