<svg id="f2c34f16-64e5-449c-9df6-4d0ad1717739" data-name="Capa 1" xmlns="http://www.w3.org/2000/svg" viewBox="0 0 340.83 71.41"><path d="M26.71,60.74H8.09V60c4.76-1.12,7.28-5.39,10.92-14.63L32.45,11.11H38l16,40.6C56.18,57.17,58.42,59,61,60v.77H34.41V60c4.62-1.12,5.88-2.59,2-12.67l-.56-1.4H21c-2.59,8.4,0,13,5.74,14.07ZM21.6,44.08H35.18L28.46,26.51Z" transform="translate(-8.09 -10.27)"/><path d="M89,60.74H63V60c2.73-.28,5.32-1.75,5.32-7.77V20.56c0-5.95-2.59-7.77-5.32-8v-.77h41.44L106,28.05h-1.47C99,17,92.93,13.35,87.05,13.35H83.34V34.56h.56c5.32,0,10.85-5.25,11.76-9.38h1V45.69h-1c-1-4.62-6.79-9.59-11.76-9.59h-.56V52.2c0,6,2.8,7.49,5.67,7.77Z" transform="translate(-8.09 -10.27)"/><path d="M134.72,60.74H109.66V60c2.73-.28,5.32-2,5.32-7.91V20.35c0-6-2.59-7.56-5.32-7.84v-.77h26.11c13,0,19.88,6.16,19.88,14.28,0,5.11-3.15,9.52-8.54,12.18l6.3,12.95c3.36,6.79,4.9,7.77,7.63,8.89v.7H141.93l-9.24-20h-2.87V52.06c0,5.95,2.38,7.63,4.9,7.91Zm-4.9-21.84h2.24c5.74,0,8.89-5.18,8.89-13.23,0-8.33-3.08-12.32-8.12-12.32h-3Z" transform="translate(-8.09 -10.27)"/><path d="M188.9,12.51c-2.66.28-5.32,1.75-5.32,7.77V52.2c0,6,2.66,7.49,5.32,7.77v.77H163.27V60c2.73-.28,5.33-1.75,5.33-7.77V20.28c0-6-2.6-7.49-5.33-7.77v-.77H188.9Z" transform="translate(-8.09 -10.27)"/><path d="M206.05,75.58a10.63,10.63,0,0,0-5.81,1.61l-.56-.49c2.59-6,10.71-12.81,17.78-14.49-13.86-.84-25.28-11.9-25.28-25.76,0-14.77,12.89-26.18,27.45-26.18s27,11.41,27,25.83c0,12-8.26,21.56-19.74,25.06-6,1.82-11,2.24-16.45,6.23,9.94-2.1,13.3,5,21.77,5,3.78,0,6.79-1.4,8.33-6l1,.21c-1,7.49-5.46,15-14.56,15C219.07,81.67,213.12,75.58,206.05,75.58Zm13.58-15c6.44,0,10.71-9.31,10.71-24.15,0-16.24-5.18-24.36-11.2-24.36-6.58,0-10.78,9.45-10.78,24.15C208.36,52.2,213.54,60.53,219.63,60.53Z" transform="translate(-8.09 -10.27)"/><path d="M294.25,41.42c-.07,14.07-6.37,20.86-19.11,20.86-13.79,0-20.31-7.42-20.31-19.25V20.28c0-6-2.8-7.49-5.81-7.77v-.77h26.61v.77c-2.87.28-5.81,1.75-5.81,7.77V46.6c0,6.72,3.43,11.41,10.36,11.41,7.35,0,12.11-4.83,12-17.71l-.07-10.85c-.07-9.94-2.8-16.66-8.68-16.94v-.77h17.64v.77c-5.32.28-6.72,6.65-6.79,17.08Z" transform="translate(-8.09 -10.27)"/><path d="M314.62,60.74H296V60c4.76-1.12,7.28-5.39,10.93-14.63l13.44-34.23h5.53l16,40.6c2.17,5.46,4.41,7.28,7,8.26v.77h-26.6V60c4.62-1.12,5.88-2.59,2-12.67l-.56-1.4H308.88c-2.6,8.4,0,13,5.74,14.07ZM309.5,44.08h13.59l-6.72-17.57Z" transform="translate(-8.09 -10.27)"/></svg>